<svg xmlns="http://www.w3.org/2000/svg" viewBox="0 0 32 32" width="32" height="32">
  <defs>
    <linearGradient id="gradient" x1="0%" y1="0%" x2="100%" y2="100%">
      <stop offset="0%" style="stop-color:#3b82f6;stop-opacity:1" />
      <stop offset="100%" style="stop-color:#f59e0b;stop-opacity:1" />
    </linearGradient>
  </defs>
  
  <!-- Rounded rectangle background with gradient -->
  <rect x="2" y="2" width="28" height="28" rx="4" ry="4" fill="url(#gradient)" />
  
  <!-- Lucide Layers icon - properly centered and scaled -->
  <g fill="none" stroke="white" stroke-width="1.5" stroke-linecap="round" stroke-linejoin="round" transform="translate(8, 8) scale(0.67)">
    <path d="m12.83 2.18a2 2 0 0 0-1.66 0L2.6 6.08a1 1 0 0 0 0 1.83l8.58 3.91a2 2 0 0 0 1.66 0l8.58-3.9a1 1 0 0 0 0-1.84z"/>
    <path d="m22 17.65-9.17 4.16a2 2 0 0 1-1.66 0L2 17.65"/>
    <path d="m22 12.65-9.17 4.16a2 2 0 0 1-1.66 0L2 12.65"/>
  </g>
</svg> 